# xmcd CD database file
#
# Track frame offsets:
#	150
#	13547
#	23327
#	38967
#	50850
#	65910
#	76107
#	90315
#	104920
#	117995
#	131387
#	140797
#	150100
#	160042
#	172752
#	188230
#
# Disc length: 2663 seconds
#
# Revision: 0
# Processed by: cddbd v1.5.1PL2 Copyright (c) Steve Scherf et al.
# Submitted via: CDex 1.51
#
DISCID=c60a6510
DTITLE=Stu Clayton - (Sunshine SSCD 4062) The Farmer - Vol 1
DYEAR=1900
DGENRE=Country
TTITLE0=The Farmer
TTITLE1=Country Farmer
TTITLE2=Nicest Things About Hogs
TTITLE3=Wild Oat Blues
TTITLE4=The Farmer's Song
TTITLE5=Milk Cow Blues
TTITLE6=Poor Poor Farmer
TTITLE7=The Auction Sale
TTITLE8=The Farmer's Alphabet
TTITLE9=Lonely Old Farm Buildings
TTITLE10=Chicken Blues
TTITLE11=Farmer's Life
TTITLE12=The Farmer's Blues
TTITLE13=Down The Old Cattle Trail
TTITLE14=If I Could Hear Her Hum Again
TTITLE15=Family Bible
EXTD=
EXTT0=
EXTT1=
EXTT2=
EXTT3=
EXTT4=
EXTT5=
EXTT6=
EXTT7=
EXTT8=
EXTT9=
EXTT10=
EXTT11=
EXTT12=
EXTT13=
EXTT14=
EXTT15=
PLAYORDER=
